<?xml version="1.0" encoding="UTF-8" standalone="no"?>
<!-- Created with Inkscape (http://www.inkscape.org/) -->

<svg
   xmlns:dc="http://purl.org/dc/elements/1.1/"
   xmlns:cc="http://creativecommons.org/ns#"
   xmlns:rdf="http://www.w3.org/1999/02/22-rdf-syntax-ns#"
   xmlns:svg="http://www.w3.org/2000/svg"
   xmlns="http://www.w3.org/2000/svg"
   xmlns:sodipodi="http://sodipodi.sourceforge.net/DTD/sodipodi-0.dtd"
   xmlns:inkscape="http://www.inkscape.org/namespaces/inkscape"
   width="1451.34"
   height="1451.34"
   viewBox="0 0 384.00036 384.00038"
   version="1.1"
   id="svg916"
   inkscape:version="0.92.4 5da689c313, 2019-01-14"
   sodipodi:docname="pytest_redis_logo.svg"
   inkscape:export-filename="/home/yoru/Desktop/grzesiek_logos/pytest_redis_logo.svg.png"
   inkscape:export-xdpi="96"
   inkscape:export-ydpi="96">
  <defs
     id="defs910" />
  <sodipodi:namedview
     id="base"
     pagecolor="#ffffff"
     bordercolor="#666666"
     borderopacity="1.0"
     inkscape:pageopacity="0.0"
     inkscape:pageshadow="2"
     inkscape:zoom="0.64"
     inkscape:cx="625.01629"
     inkscape:cy="863.06274"
     inkscape:document-units="mm"
     inkscape:current-layer="g864"
     showgrid="false"
     inkscape:snap-bbox="true"
     inkscape:bbox-nodes="true"
     inkscape:bbox-paths="true"
     inkscape:snap-bbox-edge-midpoints="true"
     inkscape:snap-bbox-midpoints="true"
     showguides="true"
     inkscape:snap-intersection-paths="true"
     inkscape:object-paths="true"
     inkscape:snap-smooth-nodes="true"
     inkscape:snap-object-midpoints="true"
     units="px"
     inkscape:window-width="1920"
     inkscape:window-height="1011"
     inkscape:window-x="1920"
     inkscape:window-y="0"
     inkscape:window-maximized="1" />
  <metadata
     id="metadata913">
    <rdf:RDF>
      <cc:Work
         rdf:about="">
        <dc:format>image/svg+xml</dc:format>
        <dc:type
           rdf:resource="http://purl.org/dc/dcmitype/StillImage" />
        <dc:title />
      </cc:Work>
    </rdf:RDF>
  </metadata>
  <g
     inkscape:label="Layer 1"
     inkscape:groupmode="layer"
     id="layer1"
     transform="translate(0,87.000384)">
    <g
       id="g1820"
       transform="matrix(0.96795908,0,0,0.96795908,465.66755,-25.893618)">
      <g
         id="g2108"
         transform="translate(520.2036,144.24303)">
        <g
           id="g864"
           transform="translate(9.6405401e-5,19.217966)">
          <path
             inkscape:connector-curvature="0"
             d="m -628.98083,65.652998 c -20.14432,10.501053 -124.50075,53.407462 -146.71702,64.988012 -22.21812,11.58955 -34.55882,11.47657 -52.10943,3.0861 -17.5506,-8.39073 -128.60311,-53.247649 -148.60773,-62.812601 -9.99938,-4.776001 -15.2556,-8.811161 -15.2556,-12.620631 v -38.15635 c 0,0 144.57574,-31.47378 167.91754,-39.84811 23.34102,-8.373268 31.43647,-8.675418 51.29927,-1.398588 19.86545,7.276838 138.63216,28.7041184 158.26265,35.893908 0,0 -0.009,34.0786 -0.009,37.61502 0.003,3.77455 -4.52649,7.91395 -14.78095,13.25324 z"
             id="path840"
             style="fill:#696969;fill-opacity:1;stroke-width:0.26458332" />
          <polygon
             points="1057.456,469.517 1036.235,477.818 840.825,400.575 1057.292,314.947 "
             id="polygon1330-4"
             style="fill:#d50000;fill-opacity:1;stroke:none"
             transform="matrix(0.26458333,0,0,0.26458333,-982.17271,-123.48143)" />
          <path
             style="fill:none;fill-opacity:1;stroke:#ffffff;stroke-width:1.32291663;stroke-miterlimit:4;stroke-dasharray:none"
             d="m -702.43078,-40.151282 -57.2735,22.65546 51.70227,20.4370104 5.61464,-2.19625997 51.72605,-20.43700043 z"
             id="path1338-4"
             inkscape:connector-curvature="0" />
          <polygon
             transform="matrix(0.26458333,0,0,0.26458333,-982.17271,-123.48143)"
             style="fill:#b71c1c;fill-opacity:1;stroke:none"
             id="polygon20-0"
             points="1057.292,314.947 1252.957,392.274 1057.456,469.517 " />
          <polygon
             transform="matrix(0.26458333,0,0,0.26458333,-982.17271,-123.48143)"
             style="fill:#d50000;fill-opacity:1;stroke:none"
             id="polygon22-3"
             points="1057.456,469.517 1036.235,477.818 840.825,400.575 1057.292,314.947 " />
          <path
             style="fill:#bf2b1b;fill-opacity:1;stroke-width:0.26458332"
             id="path1176"
             d="m -628.98083,27.496648 c -20.14432,10.50105 -124.50075,53.407463 -146.71702,64.988013 -22.21812,11.589549 -34.55882,11.476569 -52.10943,3.0861 -17.5506,-8.39073 -128.60311,-53.247653 -148.60773,-62.812603 -9.99938,-4.776 -15.2556,-8.81116 -15.2556,-12.62063 v -38.15635 c 0,0 144.57574,-31.47378 167.91754,-39.84811 23.34102,-8.373268 31.43647,-8.675418 51.29927,-1.398588 19.86545,7.276838 138.63216,28.704118 158.26265,35.893908 0,0 -0.009,34.0786 -0.009,37.61502 0.003,3.77455 -4.52649,7.91395 -14.78095,13.25324 z"
             inkscape:connector-curvature="0" />
          <path
             style="fill:#ff3924;fill-opacity:1;stroke-width:0.26458332"
             id="path1178"
             d="m -628.98083,-10.668432 c -20.14432,10.49681043 -124.50075,53.40773 -146.71702,64.98801 -22.21812,11.58504 -34.55882,11.47206 -52.10943,3.08133 -17.55272,-8.38569 -128.60284,-53.2516196 -148.60746,-62.8080996 -20.00487,-9.5607204 -20.42397,-16.1440904 -0.77259,-23.8368504 19.64929,-7.69726 130.09272,-51.029658 153.43665,-59.404248 23.33863,-8.369832 31.43673,-8.676742 51.29926,-1.397792 19.86466,7.275772 123.59721,48.56691 143.22823,55.75697 19.63315,7.19455 20.38694,13.11936 0.24236,23.62068 z"
             inkscape:connector-curvature="0" />
          <path
             style="color:#000000;font-style:normal;font-variant:normal;font-weight:normal;font-stretch:normal;font-size:medium;line-height:normal;font-family:sans-serif;font-variant-ligatures:normal;font-variant-position:normal;font-variant-caps:normal;font-variant-numeric:normal;font-variant-alternates:normal;font-feature-settings:normal;text-indent:0;text-align:start;text-decoration:none;text-decoration-line:none;text-decoration-style:solid;text-decoration-color:#000000;letter-spacing:normal;word-spacing:normal;text-transform:none;writing-mode:lr-tb;direction:ltr;text-orientation:mixed;dominant-baseline:auto;baseline-shift:baseline;text-anchor:start;white-space:normal;shape-padding:0;clip-rule:nonzero;display:inline;overflow:visible;visibility:visible;opacity:1;isolation:auto;mix-blend-mode:normal;color-interpolation:sRGB;color-interpolation-filters:linearRGB;solid-color:#000000;solid-opacity:1;vector-effect:none;fill:none;fill-opacity:1;fill-rule:nonzero;stroke:#bf2b1b;stroke-width:2.73341441;stroke-linecap:round;stroke-linejoin:miter;stroke-miterlimit:4;stroke-dasharray:none;stroke-dashoffset:0;stroke-opacity:1;color-rendering:auto;image-rendering:auto;shape-rendering:auto;text-rendering:auto;enable-background:accumulate"
             d="m -678.82472,-39.53183 -20.33324,-1.37358 -8.24597,15.563081 -35.59223,-2.28892 -0.14662,-0.01 -4.55483,8.87893 35.6253,2.52016 -7.7072,15.53512943 -0.0328,0.064 20.33324,1.37357 0.0328,-0.064 8.21569,-15.49983043 35.73629,2.2996 4.55483,-8.878929 -0.14405,-0.0107 -0.0754,-0.005 -35.40492,-2.50622 7.7072,-15.535131 z"
             id="path846-8"
             inkscape:connector-curvature="0" />
          <path
             inkscape:connector-curvature="0"
             id="path1146"
             d="M -702.65369,-100.53679 -991.65,-55.924522 c -0.008,-0.0822 -0.0172,-0.16448 -0.0206,-0.2465 v 0 0.25011 37.8933 c 0,3.80947 5.25651,7.84442 15.2559,12.6204204 9.86353,4.71609003 41.8784,18.0183896 73.88955,31.2926596 v 5.3e-4 h -0.13073 c 32.85443,13.62385 65.66588,27.2031 74.54739,31.44924 17.55061,8.39047 29.89135,8.50342 52.10947,-3.08611 10.30608,-5.37221 38.30172,-17.49015 67.35404,-29.98267 h -0.13282 v -38.10723 l -3.20704,1.37924 c -27.82838,11.97393043 -54.10598,23.38137 -64.01418,28.54606 -10.48927,5.46935 -18.77676,8.33048 -26.45058,8.94519 l 93.6718,-38.87049 -52.25366,-22.87354 58.64398,-25.929168 z m -288.99527,44.625698 188.60708,80.98472 c -8.34993,0.54551 -16.01594,-1.58006 -25.06771,-5.90765 -1.32162,-0.63135 -3.229,-1.4911 -5.53146,-2.50527 l -68.8485,-28.8184 v -0.0548 h 0.003 l -14.79651,-6.19342 0.003,-0.004 c -26.56817,-11.03635 -50.80802,-21.18431 -59.13433,-25.16187 -9.75777,-4.66345 -14.8524,-8.61834 -15.23419,-12.3393 z"
             style="fill:#d57b28;fill-opacity:1;stroke-width:0.26458332" />
          <path
             style="opacity:1;fill:#bf2b1b;fill-opacity:1;stroke:none;stroke-width:1.51001251;stroke-linecap:round;stroke-miterlimit:4;stroke-dasharray:none;stroke-opacity:1"
             d="m -698.02345,-39.850073 c -1.64828,1.273702 -2.23727,3.578364 -3.38356,5.276316 -1.80342,3.547553 -3.96946,7.012022 -5.52693,10.624819 -0.006,7.756911 -0.0118,15.5137944 -0.0175,23.27070543 2.31559,0.183959 4.63721,0.270908 6.95903,0.325003 2.8457,-5.11583103 5.26587,-10.52908543 8.5127,-15.39150143 11.61581,0.604194 23.22798,1.672767 34.85062,2.004303 1.53342,-0.697212 1.86829,-2.810933 2.80118,-4.10239 0.43784,-0.889562 0.9653,-1.800035 1.29648,-2.706818 -11.69778,-1.031153 -23.50504,-1.537956 -35.15969,-2.739264 2.13111,-5.262257 5.03547,-10.233201 7.31355,-15.454028 -5.88184,-0.365879 -11.76352,-0.774828 -17.64591,-1.107145 z"
             id="path939"
             inkscape:connector-curvature="0" />
          <path
             inkscape:connector-curvature="0"
             id="path1148"
             d="m -795.68884,-132.99593 c -7.84501,-0.0331 -15.94223,2.13816 -28.3409,6.58464 -11.2485,4.03537 -42.75915,16.20515 -74.55152,28.576028 l 0.031,-0.0703 c -34.10455,13.271102 -68.48178,26.753922 -78.63808,30.732472 -19.65139,7.69276 -19.23231,14.276068 0.77256,23.836788 9.88115,4.72035 41.99051,18.06092 74.05854,31.35932 l -0.006,-0.014 c 74.14948,31.28285 0.006,-0.28002 74.14948,31.28285 17.55061,8.39076 29.89136,8.50358 52.10951,-3.08147 10.28652,-5.36188 38.19562,-17.4448996 67.18867,-29.91289 l -94.8888,-42.06256 91.31899,-40.4802 0.0249,0.0553 9.80715,-4.347018 c -30.31536,-11.91273 -60.32139,-23.69902 -70.07694,-27.2722 -9.31056,-3.41198 -16.03624,-5.15752 -22.9583,-5.18676 z"
             style="fill:#ff9330;fill-opacity:1;stroke-width:0.26458332"
             sodipodi:nodetypes="cccccccccccccccccc" />
          <path
             id="path1190"
             d="m -772.31521,-165.89729 -219.22435,71.848848 v 38.14341 c 0,3.80947 5.25653,7.84442 15.25592,12.62042 9.86734,4.71791 41.90271,18.02826 73.92623,31.30764 v -0.29403 l 199.70306,-88.265928 0.41601,-38.08811 z m -219.22279,71.851428 4.78573,6.586162 c -3.09226,-2.323532 -4.69304,-4.490442 -4.78573,-6.586162 z m 4.79505,6.593922 84.38709,37.361538 -14.79496,-6.1929 0.003,-0.004 c -26.56822,-11.036378 -50.80807,-21.184338 -59.13438,-25.161898 -4.46582,-2.13431 -7.95269,-4.11974 -10.46086,-6.00274 z"
             style="fill:#c8d129;fill-opacity:1;stroke-width:0.26458332"
             inkscape:connector-curvature="0" />
          <path
             sodipodi:nodetypes="ccccccccccccccc"
             inkscape:connector-curvature="0"
             id="path1194"
             d="m -795.2735,-171.08405 c -7.845,-0.0332 -15.94227,2.13813 -28.34091,6.58461 -11.25677,4.03834 -43.0345,16.40967 -74.85073,28.78997 l 0.0522,-0.11834 c -34.10455,13.2711 -68.48179,26.75395 -78.63809,30.73249 -19.65141,7.692778 -19.23231,14.276078 0.77256,23.8368 9.88116,4.72035 41.9905,18.06092 74.05853,31.359318 l -0.0537,-0.1204 98.55833,-43.68881 v 0 l 91.64505,-40.624898 0.0249,0.0553 9.80715,-4.34703 c -30.31531,-11.91281 -60.32134,-23.6991 -70.0769,-27.27225 -9.31055,-3.41201 -16.03621,-5.15752 -22.95829,-5.18676 z"
             style="fill:#f4ff32;fill-opacity:1;stroke-width:0.26458332" />
          <path
             sodipodi:nodetypes="cccccccc"
             inkscape:connector-curvature="0"
             id="path1232"
             d="m -803.5779,-93.769392 101.33956,-44.855648 0.13745,-37.6282 -101.17677,44.78383 10e-4,-0.0672 -94.8459,-42.04343 0.13746,37.62819 94.2697,42.243418"
             style="fill:#009de0;fill-opacity:1;stroke:none;stroke-width:0.26458332px;stroke-linecap:butt;stroke-linejoin:miter;stroke-opacity:1" />
          <path
             inkscape:connector-curvature="0"
             style="fill:#ff6d00;fill-opacity:1;stroke:none;stroke-width:0.26458332"
             d="m -822.07909,-192.97616 8.45375,15.60007 -28.18122,10.1632 37.76824,3.39463 7.00474,11.6432 v -31.00636 z"
             id="path885-0" />
          <path
             inkscape:connector-curvature="0"
             id="path900-0"
             d="m -822.07889,-192.97667 8.45376,15.60007 -28.18122,10.16321 37.76824,3.39463 7.00474,11.64322 0.0563,0.0935 4.76613,7.92303 7.32355,-17.61855 32.70911,-3.39413 -25.36484,-9.49812 6.72412,-16.13286 -24.87651,8.14419 -1.31464,-0.51416 -0.0233,-0.009 z"
             style="fill:none;fill-opacity:1;stroke:#ffffff;stroke-width:1.32291663;stroke-miterlimit:4;stroke-dasharray:none" />
          <path
             inkscape:connector-curvature="0"
             style="fill:#00b3ff;fill-opacity:1;stroke-width:0.26458332"
             d="m -795.16082,-208.76754 c -7.845,-0.0332 -15.94225,2.13813 -28.34089,6.58461 -11.25678,4.03833 -42.80462,16.22261 -74.62085,28.60291 40.89945,18.15912 0,0 40.89945,18.15912 l 53.94545,23.95149 c 101.17677,-44.78383 0,0 101.15208,-44.83913 -30.31528,-11.91281 -60.32131,-23.69909 -70.07687,-27.27224 -9.31055,-3.41201 -16.03621,-5.15752 -22.95829,-5.18676 z"
             id="path1230-4"
             sodipodi:nodetypes="ccccccccc" />
          <path
             style="color:#000000;font-style:normal;font-variant:normal;font-weight:normal;font-stretch:normal;font-size:medium;line-height:normal;font-family:sans-serif;font-variant-ligatures:normal;font-variant-position:normal;font-variant-caps:normal;font-variant-numeric:normal;font-variant-alternates:normal;font-feature-settings:normal;text-indent:0;text-align:start;text-decoration:none;text-decoration-line:none;text-decoration-style:solid;text-decoration-color:#000000;letter-spacing:normal;word-spacing:normal;text-transform:none;writing-mode:lr-tb;direction:ltr;text-orientation:mixed;dominant-baseline:auto;baseline-shift:baseline;text-anchor:start;white-space:normal;shape-padding:0;clip-rule:nonzero;display:inline;overflow:visible;visibility:visible;opacity:1;isolation:auto;mix-blend-mode:normal;color-interpolation:sRGB;color-interpolation-filters:linearRGB;solid-color:#000000;solid-opacity:1;vector-effect:none;fill:none;fill-opacity:1;fill-rule:nonzero;stroke:#d57b28;stroke-width:2.73341441;stroke-linecap:round;stroke-linejoin:miter;stroke-miterlimit:4;stroke-dasharray:none;stroke-dashoffset:0;stroke-opacity:1;color-rendering:auto;image-rendering:auto;shape-rendering:auto;text-rendering:auto;enable-background:accumulate"
             d="m -860.31645,-12.131979 0.17766,0.01184 44.49767,3.1413244 14.07891,18.144256 20.01271,-3.229438 -0.0522,-0.07261 -0.0121,-0.0143 -13.25073,-18.1800624 30.77231,-15.325826 -15.43071,-5.592408 -0.12312,0.06007 -31.23482,15.053035 -44.67209,-2.805629 -0.17766,-0.01185 z"
             id="path848"
             inkscape:connector-curvature="0" />
          <path
             style="color:#000000;font-style:normal;font-variant:normal;font-weight:normal;font-stretch:normal;font-size:medium;line-height:normal;font-family:sans-serif;font-variant-ligatures:normal;font-variant-position:normal;font-variant-caps:normal;font-variant-numeric:normal;font-variant-alternates:normal;font-feature-settings:normal;text-indent:0;text-align:start;text-decoration:none;text-decoration-line:none;text-decoration-style:solid;text-decoration-color:#000000;letter-spacing:normal;word-spacing:normal;text-transform:none;writing-mode:lr-tb;direction:ltr;text-orientation:mixed;dominant-baseline:auto;baseline-shift:baseline;text-anchor:start;white-space:normal;shape-padding:0;clip-rule:nonzero;display:inline;overflow:visible;visibility:visible;opacity:1;isolation:auto;mix-blend-mode:normal;color-interpolation:sRGB;color-interpolation-filters:linearRGB;solid-color:#000000;solid-opacity:1;vector-effect:none;fill:none;fill-opacity:1;fill-rule:nonzero;stroke:#c8d129;stroke-width:2.73341441;stroke-linecap:round;stroke-linejoin:miter;stroke-miterlimit:4;stroke-dasharray:none;stroke-dashoffset:0;stroke-opacity:1;color-rendering:auto;image-rendering:auto;shape-rendering:auto;text-rendering:auto;enable-background:accumulate"
             d="m -858.46834,-105.489 -15.66957,-5.50781 -0.0448,0.0216 -9.11981,4.3077 1.49655,-5.49957 0.0112,-0.0356 0.007,-0.028 -21.15197,-0.42802 -0.008,0.0272 -0.008,0.0292 -1.58332,5.50521 -6.62093,-4.62702 -0.0318,-0.0232 -18.5562,4.81462 0.0318,0.0232 0.0572,0.0407 6.49026,4.60536 -12.21794,-1.95121 -0.0626,-0.01 -8.87201,8.219047 0.0596,0.0098 0.0334,0.0055 12.15136,1.977953 -13.15143,1.470547 -0.0654,0.007 4.20058,8.483465 0.0654,-0.007 0.0488,-0.0054 13.11802,-1.431696 -9.02767,4.315612 -0.0315,0.0145 -0.0448,0.02156 15.66648,5.507601 0.0448,-0.02156 10e-4,7.18e-4 0.15507,-0.07392 8.96733,-4.235581 -1.4972,5.500861 -0.0112,0.03564 -0.007,0.02798 21.15196,0.428022 0.008,-0.02722 0.008,-0.02928 1.58338,-5.505172 6.53638,4.569305 0.0826,0.05822 0.0337,0.02268 18.55626,-4.814588 -6.57933,-4.669291 12.21794,1.951209 0.0626,0.01 8.87207,-8.219013 -12.24441,-1.993235 13.14963,-1.469969 0.0654,-0.007 -4.19865,-8.483965 -0.0654,0.007 -0.0488,0.005 -13.11802,1.43169 9.02768,-4.31561 0.0315,-0.0145 z"
             id="path852"
             inkscape:connector-curvature="0" />
          <path
             style="color:#000000;font-style:normal;font-variant:normal;font-weight:normal;font-stretch:normal;font-size:medium;line-height:normal;font-family:sans-serif;font-variant-ligatures:normal;font-variant-position:normal;font-variant-caps:normal;font-variant-numeric:normal;font-variant-alternates:normal;font-feature-settings:normal;text-indent:0;text-align:start;text-decoration:none;text-decoration-line:none;text-decoration-style:solid;text-decoration-color:#000000;letter-spacing:normal;word-spacing:normal;text-transform:none;writing-mode:lr-tb;direction:ltr;text-orientation:mixed;dominant-baseline:auto;baseline-shift:baseline;text-anchor:start;white-space:normal;shape-padding:0;clip-rule:nonzero;display:inline;overflow:visible;visibility:visible;opacity:1;isolation:auto;mix-blend-mode:normal;color-interpolation:sRGB;color-interpolation-filters:linearRGB;solid-color:#000000;solid-opacity:1;vector-effect:none;fill:none;fill-opacity:1;fill-rule:nonzero;stroke:#009de0;stroke-width:2.73341441;stroke-linecap:round;stroke-linejoin:miter;stroke-miterlimit:4;stroke-dasharray:none;stroke-dashoffset:0;stroke-opacity:1;color-rendering:auto;image-rendering:auto;shape-rendering:auto;text-rendering:auto;enable-background:accumulate"
             d="m -838.93039,-155.92211 0.0851,-0.0217 0.0286,-0.008 37.40242,-9.62133 10.50721,15.96853 0.002,0.003 0.024,0.0363 16.45225,-1.93671 -0.0232,-0.0376 -0.004,-0.008 -9.99959,-16.02249 43.62724,0.0796 0.0241,1.4e-4 0.10181,7e-5 1.31029,-6.48323 -43.71241,-0.27904 16.47039,-15.92225 0.0384,-0.0365 -15.64181,-2.06906 -0.0384,0.0366 -16.95163,15.85851 -33.37204,-9.89006 -0.10137,-0.0309 -0.002,5.4e-4 -0.075,-0.0226 -10.97953,5.20344 33.21462,10.10307 -37.2438,9.81305 z"
             id="path877"
             inkscape:connector-curvature="0" />
          <path
             style="opacity:1;fill:#d57b28;fill-opacity:1;stroke:none;stroke-width:1.51001251;stroke-linecap:round;stroke-miterlimit:4;stroke-dasharray:none;stroke-opacity:1"
             d="m -779.41618,-32.114311 c -10.40931,4.779317 -20.67402,9.870181 -31.00834,14.80992 -0.054,4.42917 -0.10789,8.8583432 -0.16161,13.2875187 3.3039,4.01263051 6.13222,8.4883506 9.84811,12.1284659 5.64451,-1.0311943 11.43587,-1.659076 17.01005,-2.906773 -1.05149,-2.629244 -3.23716,-4.79772999 -4.78038,-7.2001962 -2.45883,-3.5170844 -5.23405,-6.9187448 -7.423,-10.5689924 9.29482,-5.291697 19.18829,-9.529377 28.49382,-14.791044 0.91668,-0.573799 -0.9142,-0.660043 -1.17793,-0.93137 -3.58575,-1.304771 -7.17417,-2.675499 -10.80072,-3.827529 z"
             id="path960"
             inkscape:connector-curvature="0" />
          <path
             style="opacity:1;fill:#c8d129;fill-opacity:1;stroke:none;stroke-width:1.51001251;stroke-linecap:round;stroke-miterlimit:4;stroke-dasharray:none;stroke-opacity:1"
             d="m -903.14046,-108.8719 c -1.5949,3.90281 -0.66146,8.18924 -0.94437,12.29112 -0.0401,7.159632 -0.0806,14.319265 -0.12089,21.478894 3.59242,-0.03439 7.27537,0.306159 10.82372,0.153949 1.14069,-1.748576 0.97233,-4.129389 2.07155,-5.873121 2.51454,1.289354 4.67819,3.422527 7.17314,4.655674 5.35402,-1.043888 10.74039,-2.332367 15.9035,-4.026305 -1.3547,-1.442472 -3.62635,-2.139578 -4.48167,-3.97263 -0.081,-1.283939 1.26004,-1.005044 2.10104,-0.822249 3.3375,0.358408 6.64579,1.203082 9.9826,1.394402 2.70211,-1.668137 4.99857,-4.151945 7.13363,-6.374495 -3.21581,-0.836791 -6.68334,-0.836307 -9.79325,-1.989559 -0.55906,-0.645441 -0.35066,-2.133974 0.87696,-1.669947 3.60329,-0.400486 7.20459,-0.81877 10.80676,-1.229159 -1.26675,-2.136582 -1.84152,-4.871737 -3.62462,-6.633434 -4.13298,0.26394 -8.28835,1.02436 -12.40865,1.12425 -0.79508,-0.90726 -0.16935,-1.9298 0.86531,-2.1907 1.93523,-0.98339 3.91844,-1.8693 5.87548,-2.80827 -4.39221,-1.53575 -8.78442,-3.07152 -13.17663,-4.60731 -3.40847,1.41131 -6.62714,3.5301 -10.20556,4.42741 -0.12302,-1.88721 0.95195,-3.87797 1.25284,-5.79408 -6.41008,-0.18847 -12.82294,-0.27632 -19.23437,-0.41231 -0.29217,0.95929 -0.58434,1.91858 -0.87652,2.87787 z"
             id="path962"
             inkscape:connector-curvature="0" />
          <path
             style="opacity:1;fill:#009de0;fill-opacity:1;stroke:none;stroke-width:1.51001251;stroke-linecap:round;stroke-miterlimit:4;stroke-dasharray:none;stroke-opacity:1"
             d="m -781.39866,-191.10682 c -3.53535,2.25674 -6.36326,5.51911 -9.52823,8.26417 -2.62331,2.45482 -5.24663,4.90964 -7.86994,7.36446 0.11559,4.11202 -0.22549,8.3608 0.16599,12.3902 2.7565,4.1896 5.51277,8.37936 8.26885,12.56924 4.68916,-0.68637 9.72554,-1.00778 14.21771,-1.80021 -3.14384,-5.32915 -6.51371,-10.53988 -9.77675,-15.80441 5.60544,-0.34671 11.55078,-0.12241 17.28689,-0.24962 9.06217,-0.0615 18.12435,-0.123 27.18652,-0.18451 -0.0614,-1.31755 1.13773,-2.82541 0.5462,-4.07349 -2.75448,-0.91802 -5.85648,-0.24001 -8.73919,-0.47411 -11.80671,-0.0455 -23.61225,-0.23129 -35.41747,-0.41361 2.69188,-3.07232 6.13547,-5.9814 9.11905,-8.99037 2.43627,-2.34685 4.87255,-4.69369 7.30882,-7.04054 -4.25241,-0.53133 -8.49434,-1.27179 -12.76845,-1.5572 z"
             id="path964"
             inkscape:connector-curvature="0" />
        </g>
      </g>
    </g>
  </g>
</svg>
